<?xml version="1.0" encoding="UTF-8"?>
<svg version="1.1" xmlns="http://www.w3.org/2000/svg" width="1598" height="315">
<path d="M0 0 C2.79296875 2.5546875 2.79296875 2.5546875 6.79296875 7.5546875 C5.80296875 1.2846875 4.81296875 -4.9853125 3.79296875 -11.4453125 C15.34296875 -11.4453125 26.89296875 -11.4453125 38.79296875 -11.4453125 C40.29234185 -7.69687975 41.29801947 -4.61831816 42.12158203 -0.73706055 C42.36167999 0.38372391 42.60177795 1.50450836 42.84915161 2.65925598 C43.10131439 3.8583812 43.35347717 5.05750641 43.61328125 6.29296875 C43.87680389 7.52887253 44.14032654 8.76477631 44.41183472 10.03813171 C45.10876569 13.31058891 45.80183981 16.58381428 46.49304199 19.85748291 C47.20045269 23.20320425 47.91294399 26.54784294 48.625 29.89257812 C50.01899488 36.44562947 51.40791292 42.99974131 52.79296875 49.5546875 C52.90350082 48.81997223 53.0140329 48.08525696 53.12791443 47.32827759 C54.16905949 40.41179651 55.21345343 33.49581307 56.26151943 26.58037758 C56.80025319 23.02488267 57.33771904 19.46920563 57.87231445 15.91308594 C58.38806088 12.48266376 58.90710224 9.05275507 59.42845345 5.62318039 C59.72376284 3.67472219 60.01563794 1.7257445 60.30747986 -0.22323608 C60.48759109 -1.40430939 60.66770233 -2.58538269 60.85327148 -3.80224609 C61.01093491 -4.84593353 61.16859833 -5.88962097 61.33103943 -6.9649353 C61.79296875 -9.4453125 61.79296875 -9.4453125 62.79296875 -11.4453125 C74.34296875 -11.4453125 85.89296875 -11.4453125 97.79296875 -11.4453125 C98.35886719 -7.46082031 98.92476562 -3.47632813 99.5078125 0.62890625 C99.96080926 3.81275226 100.41408956 6.99655762 100.86756134 10.180336 C101.34562913 13.53735643 101.8232011 16.89444567 102.29956055 20.25170898 C102.84682187 24.10679757 103.3958904 27.96162509 103.9453125 31.81640625 C104.11514145 33.01553146 104.2849704 34.21465668 104.45994568 35.45011902 C104.62003616 36.57090347 104.78012665 37.69168793 104.94506836 38.84643555 C105.08496689 39.83016647 105.22486542 40.8138974 105.3690033 41.82743835 C105.77230884 44.42178816 106.25697749 46.98480199 106.79296875 49.5546875 C107.03393532 48.43049156 107.03393532 48.43049156 107.2797699 47.28358459 C108.79149731 40.23405553 110.30678742 33.18530642 111.82612514 26.13741398 C112.60717661 22.51366266 113.38682794 18.88962169 114.16333008 15.26489258 C114.91220346 11.76938274 115.66468837 8.27466861 116.41972542 4.78048515 C116.70770141 3.44466508 116.99435634 2.10855954 117.2796917 0.77217293 C117.67836467 -1.09395165 118.08209657 -2.95899331 118.48608398 -4.82397461 C118.71480698 -5.88764755 118.94352997 -6.9513205 119.17918396 -8.04722595 C119.79296875 -10.4453125 119.79296875 -10.4453125 120.79296875 -11.4453125 C123.38656197 -11.53382779 125.95336566 -11.56057195 128.546875 -11.54296875 C129.32232162 -11.5415538 130.09776825 -11.54013885 130.89671326 -11.53868103 C133.38300369 -11.53306595 135.86920535 -11.52051096 138.35546875 -11.5078125 C140.03710808 -11.50279944 141.71874881 -11.4982362 143.40039062 -11.49414062 C147.53128441 -11.48309163 151.66211151 -11.46581695 155.79296875 -11.4453125 C154.20542942 -1.26706671 152.18345793 8.81010728 150.1328125 18.90234375 C149.77921674 20.64918004 149.42574915 22.39604229 149.07240295 24.14292908 C148.33662725 27.77809303 147.59939493 31.41295756 146.86108398 35.04760742 C145.91461724 39.70754558 144.97173267 44.36820016 144.02989864 49.02907658 C143.3029503 52.62464664 142.57419572 56.21984874 141.84488106 59.8149395 C141.49626898 61.53444855 141.1482061 63.25406904 140.80070305 64.97380257 C140.31679922 67.36710652 139.83048224 69.75990751 139.34350586 72.15258789 C139.20063141 72.86165787 139.05775696 73.57072784 138.91055298 74.30128479 C138.33387626 77.123783 137.70520192 79.81798799 136.79296875 82.5546875 C121.28296875 82.5546875 105.77296875 82.5546875 89.79296875 82.5546875 C86.49296875 69.6846875 83.19296875 56.8146875 79.79296875 43.5546875 C78.72046875 47.2259375 77.64796875 50.8971875 76.54296875 54.6796875 C76.19508301 55.86973389 75.84719727 57.05978027 75.48876953 58.28588867 C73.45364708 65.25785723 71.45690656 72.23846003 69.51953125 79.23828125 C68.79296875 81.5546875 68.79296875 81.5546875 67.79296875 82.5546875 C66.38071829 82.6475601 64.96387941 82.67215522 63.54858398 82.66821289 C62.64772568 82.66813736 61.74686737 82.66806183 60.81871033 82.66798401 C59.83955154 82.66282272 58.86039276 82.65766144 57.8515625 82.65234375 C56.85415543 82.6509288 55.85674835 82.64951385 54.82911682 82.64805603 C51.62953751 82.64243864 48.43002706 82.62988321 45.23046875 82.6171875 C43.0670583 82.61217474 40.90364676 82.60761145 38.74023438 82.60351562 C33.42443101 82.59331255 28.10877736 82.57374058 22.79296875 82.5546875 C20.15296875 70.0146875 17.51296875 57.4746875 14.79296875 44.5546875 C12.81296875 49.8346875 10.83296875 55.1146875 8.79296875 60.5546875 C6.47083929 64.01677142 4.61572343 66.65732257 1.79296875 69.5546875 C1.24898437 70.11414063 0.705 70.67359375 0.14453125 71.25 C-13.95844492 84.42601999 -34.32579305 85.20181129 -52.5625 84.68212891 C-66.20184595 84.02484137 -79.65930167 80.21718119 -89.76953125 70.6171875 C-100.8312044 58.32643955 -102.86948364 44.75855519 -102.33447266 28.76074219 C-101.65264267 16.95802995 -96.06726686 6.19018199 -87.3828125 -1.8203125 C-63.70570194 -19.50375594 -23.00960511 -18.4220876 0 0 Z M-62.20703125 23.5546875 C-65.41093813 29.07866487 -66.09849034 34.22532796 -65.20703125 40.5546875 C-63.52414654 45.82953582 -61.01287801 49.64882667 -56.20703125 52.5546875 C-48.41763209 55.60935384 -40.08596184 55.57808554 -32.25390625 52.67578125 C-27.74484246 50.20612226 -24.81329827 46.37348857 -23.20703125 41.5546875 C-22.54788371 34.16359055 -22.41246853 28.42802683 -27.20703125 22.5546875 C-31.12134161 19.42487358 -35.12733118 16.92637287 -40.20703125 16.5546875 C-41.20863281 16.47927734 -41.20863281 16.47927734 -42.23046875 16.40234375 C-49.90553584 16.07490915 -56.72739673 17.91849199 -62.20703125 23.5546875 Z " fill="#FEFEFE" transform="translate(1367.20703125,140.4453125)"/>
<path d="M0 0 C-2.57500239 12.35453275 -5.23429733 24.68673865 -8 37 C-10.33074373 36.07414325 -12.65726724 35.14913322 -14.95703125 34.1484375 C-19.85622942 32.10624542 -23.69103797 31.46010556 -29 32 C-31.17500647 33.00488226 -31.17500647 33.00488226 -32 35 C-31.92466753 37.6272914 -31.92466753 37.6272914 -31 40 C-28.26321275 41.36839363 -25.95735576 41.21634818 -22.8984375 41.31640625 C-21.80708496 41.35451416 -20.71573242 41.39262207 -19.59130859 41.43188477 C-18.19992676 41.47498779 -16.80854492 41.51809082 -15.375 41.5625 C-8.754375 41.7790625 -8.754375 41.7790625 -2 42 C-2 52.23 -2 62.46 -2 73 C-16.625 73 -16.625 73 -24 72 C-23.96970703 73.12156494 -23.93941406 74.24312988 -23.90820312 75.39868164 C-23.36705157 95.60385126 -22.8586434 115.78600661 -23 136 C-36.53 136 -50.06 136 -64 136 C-64 115.21 -64 94.42 -64 73 C-69.94 73.495 -69.94 73.495 -76 74 C-75.67 75.32 -75.34 76.64 -75 78 C-75 82.95 -75 87.9 -75 93 C-100.41 93 -125.82 93 -152 93 C-147.98445167 102.27851209 -147.98445167 102.27851209 -141 107 C-134.10543845 109.29818718 -124.66283898 109.16358387 -117.9375 106.3125 C-115.21172195 104.89079963 -113.02758159 103.24133932 -110.75 101.1875 C-108 99 -108 99 -105.71191406 99.22705078 C-100.27212443 100.77749857 -95.03178669 102.86153272 -89.75 104.875 C-88.54085938 105.32230469 -87.33171875 105.76960938 -86.0859375 106.23046875 C-84.93867187 106.66746094 -83.79140625 107.10445313 -82.609375 107.5546875 C-81.55717773 107.95155762 -80.50498047 108.34842773 -79.42089844 108.75732422 C-77 110 -77 110 -76 113 C-81.7976689 124.36847249 -93.18798786 131.12677913 -104.86328125 134.93359375 C-123.72901303 140.3871732 -147.54778582 140.36159539 -165.69921875 132.27734375 C-176.98481975 126.01182333 -184.59547423 116.69599589 -188.28125 104.3359375 C-191.25914904 90.51460173 -190.81340267 75.65635036 -184 63 C-179.4251397 56.00803664 -174.31255874 51.01747162 -167 47 C-166.34902344 46.62230469 -165.69804688 46.24460938 -165.02734375 45.85546875 C-147.25839329 36.71421678 -123.75444701 38.50802957 -105.1640625 43.80859375 C-93.15468212 48.07059783 -83.6963073 56.6073854 -78 68 C-77.67 59.42 -77.34 50.84 -77 42 C-72.71 42 -68.42 42 -64 42 C-64.0825 40.1025 -64.165 38.205 -64.25 36.25 C-64.21387401 25.17136251 -60.91923948 15.87390032 -53 8 C-38.27827118 -4.50372001 -18.05034224 -6.01678075 0 0 Z M-150 76 C-150 76.66 -150 77.32 -150 78 C-137.46 78 -124.92 78 -112 78 C-115.52351489 72.12747518 -118.55894724 69.18788322 -125 67 C-135.56856309 65.7835884 -143.0912561 67.88222592 -150 76 Z " fill="#FEFEFE" transform="translate(1211,87)"/>
<path d="M0 0 C44.22 0 88.44 0 134 0 C134 10.89 134 21.78 134 33 C103.31 33 72.62 33 41 33 C41 38.61 41 44.22 41 50 C84.56 49.505 84.56 49.505 129 49 C129 60.55 129 72.1 129 84 C121.85923828 83.89171875 121.85923828 83.89171875 114.57421875 83.78125 C111.51627819 83.73552121 108.45833682 83.68987737 105.40039062 83.64453125 C100.57135782 83.57291394 95.74233046 83.50102146 90.91333008 83.42724609 C87.00998017 83.36763241 83.106611 83.30945617 79.20322609 83.25218201 C77.7312732 83.23034963 76.25932726 83.20804209 74.78738976 83.18519592 C63.52238114 83.01083559 52.26858574 83 41 83 C41 96.86 41 110.72 41 125 C27.47 125 13.94 125 0 125 C0 83.75 0 42.5 0 0 Z " fill="#FEFEFE" transform="translate(370,98)"/>
<path d="M0 0 C9.39324915 7.50712954 13.19079313 17.31209082 14.60325623 29.08920288 C14.92747538 32.437316 14.98687606 35.78382859 15.0234375 39.14453125 C15.05146125 40.608736 15.08012527 42.07292861 15.109375 43.53710938 C15.15084447 45.81274643 15.1877938 48.08814472 15.21386719 50.36401367 C15.24139948 52.58297381 15.28720376 54.8009492 15.3359375 57.01953125 C15.3656665 58.99336792 15.3656665 58.99336792 15.39599609 61.00708008 C15.53798284 64.18561768 15.53798284 64.18561768 17.15478516 66.0769043 C18.68827137 67.16208857 20.2493955 68.20793033 21.8125 69.25 C21.8687279 72.21528179 21.76933804 74.93850026 21.5 77.875 C21.4081543 79.07769531 21.4081543 79.07769531 21.31445312 80.3046875 C21.16101492 82.28758124 20.98854307 84.26898519 20.8125 86.25 C14.83951233 87.27583168 8.99172456 87.46714125 2.9375 87.5 C1.99519531 87.520625 1.05289063 87.54125 0.08203125 87.5625 C-6.89353504 87.60109234 -13.67891237 87.04782402 -19.30859375 82.55859375 C-22.97834931 77.34253169 -24.43608651 72.57223767 -25.1875 66.25 C-25.9609375 67.24 -25.9609375 67.24 -26.75 68.25 C-27.554375 69.24 -28.35875 70.23 -29.1875 71.25 C-29.69667969 71.889375 -30.20585938 72.52875 -30.73046875 73.1875 C-37.05956323 80.83455237 -44.27286663 85.63511654 -54.1875 87.25 C-65.83936531 88.22570231 -78.75828981 88.36612469 -88.6875 81.4375 C-95.83552261 75.38689165 -97.69609425 68.75374445 -98.5 59.75 C-97.83765232 52.33170602 -95.5393903 46.52083994 -90.41796875 41.0390625 C-86.19821565 37.65439189 -81.24080056 36.02622826 -76.1875 34.25 C-74.51802478 33.59039807 -72.85035921 32.92610759 -71.1875 32.25 C-78.72148179 27.33094219 -86.21755438 22.44581793 -94.1875 18.25 C-88.8432292 8.73051763 -80.57492882 2.51410723 -71.1875 -2.75 C-70.48238281 -3.15089844 -69.77726563 -3.55179688 -69.05078125 -3.96484375 C-49.09061092 -14.03997735 -18.33363412 -12.69251593 0 0 Z M-60.1875 31.25 C-55.22259375 32.90496875 -50.1229812 32.19423482 -44.9375 32 C-43.81730469 31.97292969 -42.69710937 31.94585937 -41.54296875 31.91796875 C-35.38197644 31.69247789 -30.64510037 31.18385453 -25.1875 28.25 C-25.29363836 25.79775306 -25.29363836 25.79775306 -26.1875 23.25 C-37.06746598 16.53002102 -51.58050516 24.29966124 -60.1875 31.25 Z M-30.5 43.5 C-34.39654278 44.59123787 -38.28774068 45.48553746 -42.26171875 46.234375 C-43.1539917 46.40291992 -44.04626465 46.57146484 -44.96557617 46.74511719 C-46.76466861 47.07882632 -48.56563912 47.40258077 -50.3684082 47.71582031 C-51.205896 47.87147461 -52.04338379 48.02712891 -52.90625 48.1875 C-54.03450195 48.38666016 -54.03450195 48.38666016 -55.18554688 48.58984375 C-57.57085767 49.37641453 -58.66829086 50.26165907 -60.1875 52.25 C-60.11216753 54.8772914 -60.11216753 54.8772914 -59.1875 57.25 C-53.24143195 60.22303403 -44.45550865 58.68027174 -38.375 56.6875 C-33.3086956 54.59263513 -28.45353249 51.75132271 -25.1875 47.25 C-24.91037 44.60053545 -24.91037 44.60053545 -25.1875 42.25 C-27.00795569 42.25 -28.76576339 42.99294482 -30.5 43.5 Z " fill="#FEFEFE" transform="translate(722.1875,136.75)"/>
<path d="M0 0 C6.25618535 4.47041597 12.29314586 9.7370166 15.8515625 16.64453125 C16.43679687 16.57234375 17.02203125 16.50015625 17.625 16.42578125 C31.36360875 14.94052625 45.50236479 13.69495599 58.0390625 20.33203125 C67.05783038 27.74746262 71.65272564 35.97750038 72.8515625 47.64453125 C72.81675253 50.31954343 72.73011772 52.92065432 72.5390625 55.58203125 C72.49273682 56.28134766 72.44641113 56.98066406 72.39868164 57.70117188 C72.03570112 62.562053 71.30256224 67.00133207 69.8515625 71.64453125 C70.70234375 71.89203125 71.553125 72.13953125 72.4296875 72.39453125 C85.28156673 77.08928165 97.89834511 87.3480762 103.95703125 99.63671875 C104.25222656 100.29929687 104.54742187 100.961875 104.8515625 101.64453125 C105.2846875 102.59328125 105.7178125 103.54203125 106.1640625 104.51953125 C108.32695709 114.35087028 106.63865966 123.12362332 101.6015625 131.796875 C95.28745995 140.85545963 86.45840336 147.43230908 76.8515625 152.64453125 C77.0165625 153.79953125 77.1815625 154.95453125 77.3515625 156.14453125 C78.82976635 169.90487 78.99333978 182.93775115 70.64453125 194.60546875 C65.03515886 200.984755 56.9745886 204.87743193 48.5715332 205.93017578 C46.26056939 206.04536246 43.9774421 206.05992703 41.6640625 206.01953125 C40.44046021 206.01083008 40.44046021 206.01083008 39.19213867 206.00195312 C31.82190908 205.84628972 24.96928815 204.59522931 17.8515625 202.64453125 C17.62726563 203.34707031 17.40296875 204.04960937 17.171875 204.7734375 C15.566198 208.26507241 13.33090946 210.81483008 10.7265625 213.58203125 C10.23373779 214.10982178 9.74091309 214.6376123 9.2331543 215.18139648 C0.91206558 223.93239685 -6.30809134 228.70217773 -18.5859375 229.08203125 C-25.01769485 228.93527488 -29.71544022 228.0872226 -35.1484375 224.64453125 C-35.80972656 224.23203125 -36.47101563 223.81953125 -37.15234375 223.39453125 C-45.30164771 217.78092069 -52.79059684 209.57919954 -57.1484375 200.64453125 C-57.1484375 199.98453125 -57.1484375 199.32453125 -57.1484375 198.64453125 C-58.34726563 198.86109375 -58.34726563 198.86109375 -59.5703125 199.08203125 C-73.1041638 201.36944274 -86.83517916 202.44964567 -99.0234375 194.95703125 C-106.18344277 189.69079549 -110.14180367 183.24993499 -112.1484375 174.64453125 C-112.50112671 170.96507902 -112.48004518 167.33727896 -112.3984375 163.64453125 C-112.39328125 162.71125 -112.388125 161.77796875 -112.3828125 160.81640625 C-112.33295822 156.35444799 -112.09516715 152.08640805 -111.41015625 147.67578125 C-110.95526439 144.39544759 -110.95526439 144.39544759 -112.58984375 141.55078125 C-113.28980469 141.08671875 -113.98976563 140.62265625 -114.7109375 140.14453125 C-122.75561547 134.01257392 -126.34287345 126.4999017 -128.1484375 116.64453125 C-129.1848398 106.79870944 -125.19440379 98.18500607 -119.1484375 90.64453125 C-114.92970224 85.90371697 -110.59312292 81.9113425 -105.1484375 78.64453125 C-105.2928125 77.90332031 -105.4371875 77.16210938 -105.5859375 76.3984375 C-107.88029724 63.38113259 -109.61379214 48.7259044 -103.1484375 36.64453125 C-96.99022635 27.92140701 -90.13430875 22.99243947 -79.703125 20.953125 C-71.85164682 20.00470485 -63.94115249 20.42214458 -56.1484375 21.64453125 C-55.61476563 20.81050781 -55.08109375 19.97648437 -54.53125 19.1171875 C-47.63087029 8.59179577 -39.78515815 -1.04276126 -27.3046875 -4.9296875 C-17.382711 -6.88891837 -8.48685458 -5.35443371 0 0 Z M-47.33203125 15.671875 C-49.00992475 18.29506061 -50.61792871 20.93319945 -52.1484375 23.64453125 C-51.62523926 23.83039795 -51.10204102 24.01626465 -50.56298828 24.20776367 C-48.13075551 25.07603599 -45.70164284 25.95255758 -43.2734375 26.83203125 C-42.40315918 27.14648193 -41.53288086 27.46093262 -40.63623047 27.78491211 C-35.20612353 29.78251359 -30.11689992 31.98101808 -25.15625 34.9921875 C-22.19454018 35.95445509 -20.90721372 35.02590982 -18.1484375 33.64453125 C-16.99472656 33.0721875 -15.84101563 32.49984375 -14.65234375 31.91015625 C-13.33814898 31.23904968 -12.02436494 30.56713833 -10.7109375 29.89453125 C-3.31680408 26.14587756 4.18839225 22.80558898 11.8515625 19.64453125 C9.05456965 11.20843991 1.60270538 5.24834088 -5.9609375 1.01953125 C-22.39944128 -6.38729138 -37.44241643 1.96087056 -47.33203125 15.671875 Z M18.8515625 21.64453125 C19.09801514 22.19165771 19.34446777 22.73878418 19.59838867 23.30249023 C20.75647369 25.89081701 21.89741206 28.48641525 23.0390625 31.08203125 C23.46630615 32.02965332 23.8935498 32.97727539 24.33374023 33.95361328 C26.31597398 38.48107309 28.02440156 42.66636454 28.71875 47.578125 C29.58682838 54.09304793 29.58682838 54.09304793 32.8515625 59.64453125 C39.32594554 63.27890405 46.72306485 64.59871612 53.93945312 66.01464844 C58.04466824 66.90259738 61.89959748 68.23075297 65.8515625 69.64453125 C70.01720976 58.25842874 70.00080818 46.99658004 65.8515625 35.64453125 C62.35706503 28.91438798 56.81331761 23.59399895 49.68359375 20.95703125 C44.81572925 19.44372881 40.29333124 19.22987865 35.2265625 19.33203125 C34.01613281 19.32719727 34.01613281 19.32719727 32.78125 19.32226562 C27.77686273 19.36694765 23.59546198 20.04839349 18.8515625 21.64453125 Z M-16.1484375 36.64453125 C-16.1484375 37.63453125 -16.1484375 38.62453125 -16.1484375 39.64453125 C-14.09748317 41.26571793 -14.09748317 41.26571793 -11.3984375 42.76953125 C-4.84151144 46.75477982 2.39786077 51.19082952 7.8515625 56.64453125 C10.43648811 57.04879473 13.00502646 57.39846403 15.6015625 57.70703125 C16.31828125 57.79791016 17.035 57.88878906 17.7734375 57.98242188 C21.48607894 58.43626499 25.11086734 58.75498485 28.8515625 58.64453125 C26.14568198 45.89840985 21.67453604 33.78469602 14.8515625 22.64453125 C5.0589936 22.64453125 -7.85026177 32.00696921 -16.1484375 36.64453125 Z M-97.1484375 35.64453125 C-104.29264352 45.26255189 -104.28116212 57.49086696 -102.6953125 68.90625 C-102.24213399 71.17537952 -101.74987924 73.41060478 -101.1484375 75.64453125 C-96.2205676 74.0797574 -91.47908216 72.19270422 -86.7109375 70.20703125 C-85.98583984 69.90732422 -85.26074219 69.60761719 -84.51367188 69.29882812 C-83.07246314 68.70188542 -81.63672511 68.09154746 -80.20703125 67.4675293 C-78.1484375 66.64453125 -78.1484375 66.64453125 -74.37109375 65.69921875 C-69.08862619 62.3312455 -68.53587537 57.0523115 -67.0234375 51.20703125 C-66.40200242 48.93580305 -65.77441266 46.66624972 -65.140625 44.3984375 C-64.82963867 43.28484863 -64.51865234 42.17125977 -64.19824219 41.02392578 C-62.5562275 35.73816595 -60.39990312 30.69569035 -58.1484375 25.64453125 C-72.62596751 22.57573968 -86.90809326 24.14532673 -97.1484375 35.64453125 Z M-54.1484375 26.64453125 C-59.93879574 37.95114794 -63.75935042 49.41650643 -67.1484375 61.64453125 C-61.65687407 63.47505239 -56.28201135 60.88345471 -51.1484375 58.64453125 C-48.49838703 56.68438672 -46.25126303 54.56000363 -43.9140625 52.23828125 C-40.49382023 49.03059641 -36.82192994 46.32173061 -33.0234375 43.58203125 C-32.00854248 42.84811157 -32.00854248 42.84811157 -30.97314453 42.09936523 C-29.36813095 40.94326746 -27.75875752 39.7932262 -26.1484375 38.64453125 C-33.78167595 32.32736839 -44.68917875 29.12922134 -54.1484375 26.64453125 Z M-26.765625 43.09375 C-27.80009766 43.87202148 -27.80009766 43.87202148 -28.85546875 44.66601562 C-29.57089844 45.21580078 -30.28632813 45.76558594 -31.0234375 46.33203125 C-31.73113281 46.86248047 -32.43882812 47.39292969 -33.16796875 47.93945312 C-37.12721603 50.94390986 -40.73221491 54.03405286 -44.1484375 57.64453125 C-42.983125 57.58394531 -41.8178125 57.52335937 -40.6171875 57.4609375 C-27.13097383 56.76880117 -13.64140844 56.18781374 -0.1484375 55.64453125 C-3.98842812 51.53025558 -8.08287012 48.42395799 -12.7734375 45.33203125 C-13.44117188 44.87763672 -14.10890625 44.42324219 -14.796875 43.95507812 C-19.66996986 40.71447004 -21.97372264 39.47037752 -26.765625 43.09375 Z M-39.5859375 60.70703125 C-40.54201904 60.79114258 -41.49810059 60.87525391 -42.4831543 60.96191406 C-49.55819901 61.85223967 -53.27427418 64.56562382 -58.1484375 69.64453125 C-59.44007813 70.87042969 -59.44007813 70.87042969 -60.7578125 72.12109375 C-62.90676409 74.27788822 -65.02921768 76.45856435 -67.1484375 78.64453125 C-67.9734375 79.42828125 -68.7984375 80.21203125 -69.6484375 81.01953125 C-74.05141008 88.72473327 -72.61839266 100.90885396 -72.828125 109.71386719 C-72.87491549 111.2482054 -72.9432147 112.78204156 -73.03320312 114.31445312 C-73.55491904 123.41722779 -73.20731913 129.82479472 -66.95703125 136.84765625 C-65.07005868 138.84151002 -63.12778051 140.73889643 -61.1484375 142.64453125 C-60.06883797 143.84898044 -58.9987937 145.06226757 -57.94921875 146.29296875 C-52.95612627 151.76420666 -47.8985869 156.95534336 -42.1484375 161.64453125 C-41.2203125 162.42828125 -40.2921875 163.21203125 -39.3359375 164.01953125 C-34.76008773 167.41873394 -29.53944046 167.11599101 -24.03515625 167.41015625 C-20.1484375 167.64453125 -20.1484375 167.64453125 -16.60546875 168.12890625 C-9.98936319 168.75687559 -5.91233339 168.0619432 -0.79638672 163.90917969 C1.6055686 161.77249126 3.91384159 159.55849347 6.1875 157.28613281 C7.74216375 155.75245338 9.33546045 154.29559828 10.9765625 152.85546875 C18.46166532 146.27476051 25.28565609 139.13521321 31.8515625 131.64453125 C32.44324219 131.01289063 33.03492188 130.38125 33.64453125 129.73046875 C35.41087846 126.67794639 35.47185625 123.65043274 35.6015625 120.20703125 C35.65340698 119.11213379 35.65340698 119.11213379 35.70629883 117.99511719 C35.9371094 111.78728812 35.79690146 105.59945836 35.5390625 99.39453125 C35.48733887 98.05563843 35.48733887 98.05563843 35.43457031 96.68969727 C35.39041992 95.84463623 35.34626953 94.9995752 35.30078125 94.12890625 C35.26299561 93.38350586 35.22520996 92.63810547 35.1862793 91.87011719 C34.41731296 86.75713607 32.34542185 83.76481495 28.7109375 80.17578125 C27.88722656 79.35722656 27.06351562 78.53867188 26.21484375 77.6953125 C25.35246094 76.85355469 24.49007812 76.01179688 23.6015625 75.14453125 C22.75464844 74.30277344 21.90773438 73.46101563 21.03515625 72.59375 C9.33039467 61.03461532 2.75817004 59.35652576 -13.53735352 59.40014648 C-22.25603317 59.45788858 -30.91008542 59.77730324 -39.5859375 60.70703125 Z M13.8515625 60.64453125 C15.5015625 62.29453125 17.1515625 63.94453125 18.8515625 65.64453125 C23.18489583 69.97786458 27.51822917 74.31119792 31.8515625 78.64453125 C33.00078178 74.75260653 32.48273369 72.32724124 31.4140625 68.39453125 C30.8984375 66.49703125 30.3828125 64.59953125 29.8515625 62.64453125 C24.5715625 61.98453125 19.2915625 61.32453125 13.8515625 60.64453125 Z M34.8515625 64.64453125 C35.13452869 67.37485398 35.42760132 70.10345273 35.7265625 72.83203125 C35.80519531 73.60095703 35.88382813 74.36988281 35.96484375 75.16210938 C36.88032949 83.36627006 39.69905744 88.10754093 44.8515625 94.45703125 C45.398125 95.14990234 45.9446875 95.84277344 46.5078125 96.55664062 C47.03375 97.21083984 47.5596875 97.86503906 48.1015625 98.5390625 C48.58109375 99.13565674 49.060625 99.73225098 49.5546875 100.34692383 C49.98265625 100.77513428 50.410625 101.20334473 50.8515625 101.64453125 C51.5115625 101.64453125 52.1715625 101.64453125 52.8515625 101.64453125 C59.799615 89.02348053 59.799615 89.02348053 64.8515625 75.64453125 C64.5215625 74.65453125 64.1915625 73.66453125 63.8515625 72.64453125 C60.98516276 71.26073234 60.98516276 71.26073234 57.4765625 70.14453125 C56.8489502 69.93094971 56.22133789 69.71736816 55.57470703 69.49731445 C45.42049986 65.93595015 45.42049986 65.93595015 34.8515625 64.64453125 Z M-68.1484375 66.64453125 C-68.4784375 69.28453125 -68.8084375 71.92453125 -69.1484375 74.64453125 C-68.01948874 73.71179016 -66.89542874 72.77313003 -65.7734375 71.83203125 C-65.14695312 71.30996094 -64.52046875 70.78789063 -63.875 70.25 C-61.9263327 68.56227386 -61.9263327 68.56227386 -60.1484375 65.64453125 C-63.26101319 65.64453125 -65.25609435 65.81814749 -68.1484375 66.64453125 Z M-81.7109375 71.33203125 C-82.43023437 71.60096191 -83.14953125 71.86989258 -83.890625 72.14697266 C-89.2549762 74.19968272 -94.27502273 76.58510975 -99.1484375 79.64453125 C-97.15722417 87.53951742 -93.95929607 94.46679763 -90.1484375 101.64453125 C-86.89468341 98.56124719 -84.24755656 95.24739969 -81.5859375 91.64453125 C-80.82152344 90.61328125 -80.05710937 89.58203125 -79.26953125 88.51953125 C-78.56957031 87.57078125 -77.86960937 86.62203125 -77.1484375 85.64453125 C-76.58640625 85 -76.024375 84.35546875 -75.4453125 83.69140625 C-73.63970608 80.84159371 -73.3934273 78.22137583 -72.9609375 74.89453125 C-72.80238281 73.7240625 -72.64382812 72.55359375 -72.48046875 71.34765625 C-72.31611328 70.00960937 -72.31611328 70.00960937 -72.1484375 68.64453125 C-75.52500542 68.64453125 -78.58124075 70.15839497 -81.7109375 71.33203125 Z M67.8515625 75.64453125 C67.49964844 76.64871094 67.14773438 77.65289062 66.78515625 78.6875 C63.83538966 86.91228598 60.60883969 94.3750643 56.07421875 101.875 C54.59650167 105.22228886 54.57805053 106.24004307 55.8515625 109.64453125 C57.27963488 112.30078381 58.87352602 114.84115662 60.4765625 117.39453125 C65.60661152 125.80825389 69.35097908 134.45549978 72.8515625 143.64453125 C73.51521694 145.31239965 74.18044785 146.97965067 74.8515625 148.64453125 C86.1302595 143.22312858 96.64312193 134.45910196 101.7265625 122.76953125 C104.18528051 115.23142574 103.39274123 108.24069695 100.16015625 101.08203125 C94.00855581 89.62352774 82.80145982 80.6934263 70.8515625 75.64453125 C69.8615625 75.64453125 68.8715625 75.64453125 67.8515625 75.64453125 Z M-114.72753906 92.16943359 C-120.54890055 98.21284701 -123.68492806 104.63862926 -124.4609375 113.01953125 C-123.5533986 123.54698254 -118.11298038 132.78617488 -110.1484375 139.64453125 C-109.4884375 139.64453125 -108.8284375 139.64453125 -108.1484375 139.64453125 C-107.9124585 139.0712207 -107.67647949 138.49791016 -107.43334961 137.90722656 C-106.32641676 135.23256353 -105.20579134 132.56380893 -104.0859375 129.89453125 C-103.68777832 128.92386719 -103.28961914 127.95320313 -102.87939453 126.953125 C-99.39065384 118.65678025 -99.39065384 118.65678025 -96.67578125 115.31640625 C-94.22245277 112.27089504 -92.90384166 110.50801395 -92.1484375 106.64453125 C-93.69782603 99.94059803 -96.89924293 93.77328034 -100.09765625 87.72241211 C-101.1484375 85.64453125 -101.1484375 85.64453125 -102.1484375 82.64453125 C-106.64429127 82.64453125 -111.58327888 89.07891309 -114.72753906 92.16943359 Z M-76.1484375 89.64453125 C-78.15728774 91.93279507 -79.9447048 94.39900198 -81.7734375 96.83203125 C-82.30195312 97.50556641 -82.83046875 98.17910156 -83.375 98.87304688 C-86.31547023 102.67216296 -86.31547023 102.67216296 -87.23046875 107.2421875 C-85.82835411 110.35518571 -84.13328498 113.07184381 -82.2109375 115.89453125 C-81.50066406 116.9515625 -80.79039063 118.00859375 -80.05859375 119.09765625 C-78.39941284 121.70538258 -78.39941284 121.70538258 -76.1484375 122.64453125 C-75.8184375 111.75453125 -75.4884375 100.86453125 -75.1484375 89.64453125 C-75.4784375 89.64453125 -75.8084375 89.64453125 -76.1484375 89.64453125 Z M38.8515625 93.64453125 C38.8515625 102.88453125 38.8515625 112.12453125 38.8515625 121.64453125 C41.38297024 118.48027157 43.84535735 115.39035745 46.1640625 112.08203125 C46.96263672 110.96634766 46.96263672 110.96634766 47.77734375 109.828125 C49.01214897 107.75799651 49.01214897 107.75799651 48.76953125 105.6953125 C47.5160971 102.89508728 45.7928605 100.7656881 43.8515625 98.39453125 C43.1296875 97.5025 42.4078125 96.61046875 41.6640625 95.69140625 C41.0659375 95.0159375 40.4678125 94.34046875 39.8515625 93.64453125 C39.5215625 93.64453125 39.1915625 93.64453125 38.8515625 93.64453125 Z M-90.1484375 110.64453125 C-94.19926596 115.98628306 -97.21117619 121.59399201 -99.8984375 127.70703125 C-100.19177979 128.36703125 -100.48512207 129.02703125 -100.78735352 129.70703125 C-102.74710953 134.27960665 -104.04521527 138.79359822 -105.1484375 143.64453125 C-97.0884256 148.46767667 -89.08669864 152.96253322 -80.2734375 156.26953125 C-79.59023437 156.52879395 -78.90703125 156.78805664 -78.203125 157.05517578 C-76.54104371 157.65269738 -74.84622378 158.15763493 -73.1484375 158.64453125 C-72.4884375 158.31453125 -71.8284375 157.98453125 -71.1484375 157.64453125 C-72.65998342 140.90832699 -75.00352502 128.48048278 -86.1484375 115.64453125 C-87.48502826 113.98047575 -88.8196953 112.31486048 -90.1484375 110.64453125 Z M51.8515625 110.64453125 C49.74838135 113.08573141 47.85335926 115.6973165 45.9140625 118.26953125 C45.36298828 118.98238281 44.81191406 119.69523437 44.24414062 120.4296875 C43.4484668 121.48349609 43.4484668 121.48349609 42.63671875 122.55859375 C42.15082275 123.19748535 41.66492676 123.83637695 41.16430664 124.49462891 C38.40909794 129.00687882 37.5329567 133.86066436 36.78125 139.03125 C36.60722656 140.21654297 36.43320313 141.40183594 36.25390625 142.62304688 C35.99287109 144.45899414 35.99287109 144.45899414 35.7265625 146.33203125 C35.54480469 147.56759766 35.36304688 148.80316406 35.17578125 150.07617188 C34.20845248 156.33611173 34.20845248 156.33611173 33.8515625 162.64453125 C40.97371638 162.07750814 47.29656377 160.06782954 54.0390625 157.76953125 C55.10576172 157.41761719 56.17246094 157.06570312 57.27148438 156.703125 C62.16004276 155.05831924 66.48111594 153.42702748 70.8515625 150.64453125 C69.52334332 143.13349063 66.89909935 136.90473557 63.5390625 130.08203125 C63.06533203 129.09267578 62.59160156 128.10332031 62.10351562 127.08398438 C59.33153374 121.36937877 56.39539658 115.9195126 52.8515625 110.64453125 C52.5215625 110.64453125 52.1915625 110.64453125 51.8515625 110.64453125 Z M31.46875 136.89453125 C28.40682246 139.9701894 25.45778845 143.07226255 22.6640625 146.39453125 C18.70476799 151.00024119 14.23120617 154.98288551 9.71875 159.03125 C7.00915999 161.50088994 4.42153287 164.03219873 1.8515625 166.64453125 C11.46856282 167.20534984 20.46809797 165.49262274 29.8515625 163.64453125 C30.5270539 160.10448922 31.19037048 156.56226956 31.8515625 153.01953125 C32.13773438 151.52099609 32.13773438 151.52099609 32.4296875 149.9921875 C33.32683386 145.15400532 34.12165538 140.59060707 33.8515625 135.64453125 C32.66452697 135.53276725 32.66452697 135.53276725 31.46875 136.89453125 Z M-71.1484375 137.64453125 C-70.702552 140.91718786 -70.23959495 144.18720564 -69.7734375 147.45703125 C-69.64710938 148.38580078 -69.52078125 149.31457031 -69.390625 150.27148438 C-69.26171875 151.16416016 -69.1328125 152.05683594 -69 152.9765625 C-68.88479004 153.79874268 -68.76958008 154.62092285 -68.65087891 155.46801758 C-68.21978126 157.92029151 -68.21978126 157.92029151 -66.1484375 160.64453125 C-64.28899414 161.4357407 -64.28899414 161.4357407 -62.12109375 161.84765625 C-60.93290039 162.110625 -60.93290039 162.110625 -59.72070312 162.37890625 C-58.89248047 162.5490625 -58.06425781 162.71921875 -57.2109375 162.89453125 C-56.38658203 163.08015625 -55.56222656 163.26578125 -54.71289062 163.45703125 C-49.91385782 164.57329991 -49.91385782 164.57329991 -45.1484375 163.64453125 C-45.66792969 163.12503906 -46.18742187 162.60554688 -46.72265625 162.0703125 C-54.86458333 153.92838542 -63.00651042 145.78645833 -71.1484375 137.64453125 Z M-106.1484375 147.64453125 C-110.2719596 156.58731374 -109.9999494 167.63376959 -107.21484375 176.92578125 C-103.95235161 185.24334364 -99.12420725 190.59487191 -91.1484375 194.64453125 C-81.30629866 198.31448133 -70.12720715 197.39729529 -60.1484375 194.64453125 C-60.32874512 194.10868408 -60.50905273 193.57283691 -60.69482422 193.02075195 C-62.6091361 187.30801633 -64.4600293 181.57752807 -66.2734375 175.83203125 C-66.53769531 174.99994141 -66.80195313 174.16785156 -67.07421875 173.31054688 C-67.32816406 172.50681641 -67.58210938 171.70308594 -67.84375 170.875 C-68.07078613 170.15723389 -68.29782227 169.43946777 -68.53173828 168.69995117 C-69.1484375 166.64453125 -69.1484375 166.64453125 -69.51513672 164.46679688 C-69.72412598 163.86544922 -69.93311523 163.26410156 -70.1484375 162.64453125 C-72.83962306 161.55888253 -75.36667829 160.72924921 -78.1484375 159.95703125 C-86.69109024 157.38120967 -94.1938729 153.74324681 -101.96484375 149.40234375 C-104.68823379 147.56397104 -104.68823379 147.56397104 -106.1484375 147.64453125 Z M66.34350586 156.52441406 C58.32903086 159.87907473 50.24348053 162.35727681 41.84765625 164.56640625 C41.16477539 164.75783203 40.48189453 164.94925781 39.77832031 165.14648438 C37.8515625 165.64453125 37.8515625 165.64453125 34.55078125 166.16015625 C30.73256639 168.25989814 30.29024289 170.74594879 29.03125 174.796875 C28.76570312 175.73660156 28.50015625 176.67632812 28.2265625 177.64453125 C27.67498058 179.47880133 27.12029712 181.31214163 26.5625 183.14453125 C26.29147461 184.04816406 26.02044922 184.95179688 25.74121094 185.8828125 C24.34097279 190.2295452 22.61914555 194.43610885 20.8515625 198.64453125 C31.73755121 202.51135329 45.50546461 204.08073706 56.6015625 200.01953125 C65.58792078 195.51853789 70.22857598 189.31552957 73.47265625 179.828125 C74.04918486 176.50565602 74.03595891 173.19321926 74.0390625 169.83203125 C74.05743164 168.80239258 74.05743164 168.80239258 74.07617188 167.75195312 C74.0896056 163.018804 73.33824199 159.13982693 71.8515625 154.64453125 C69.87867759 154.64453125 68.13537936 155.76863425 66.34350586 156.52441406 Z M-66.1484375 164.64453125 C-64.07971506 174.86993073 -60.26905541 184.11630793 -56.1484375 193.64453125 C-46.18484795 190.77622517 -37.29784706 186.41576273 -28.1484375 181.64453125 C-27.4884375 181.31453125 -26.8284375 180.98453125 -26.1484375 180.64453125 C-27.78904529 175.72270787 -31.4573856 173.13932904 -35.9140625 170.61816406 C-44.73663399 166.77371311 -56.52346653 164.64453125 -66.1484375 164.64453125 Z M-15.4375 177.74609375 C-16.00210938 178.37257812 -16.56671875 178.9990625 -17.1484375 179.64453125 C-14.33473636 182.95167998 -10.63294351 184.86501631 -6.8984375 186.95703125 C-6.19912109 187.35075928 -5.49980469 187.7444873 -4.77929688 188.15014648 C2.18264965 191.97843659 9.40191857 194.91513584 16.8515625 197.64453125 C24.43879685 183.69719254 24.43879685 183.69719254 27.8515625 168.64453125 C4.49090486 167.6737528 4.49090486 167.6737528 -15.4375 177.74609375 Z M-30.1484375 170.64453125 C-27.03586181 173.75710694 -24.86716441 175.57857185 -21.1484375 177.64453125 C-19.80988694 176.8617182 -18.47770106 176.06801248 -17.1484375 175.26953125 C-16.0346875 174.60824219 -16.0346875 174.60824219 -14.8984375 173.93359375 C-14.3209375 173.50820312 -13.7434375 173.0828125 -13.1484375 172.64453125 C-13.1484375 171.98453125 -13.1484375 171.32453125 -13.1484375 170.64453125 C-18.7584375 170.64453125 -24.3684375 170.64453125 -30.1484375 170.64453125 Z M-29.8984375 186.20703125 C-37.68517279 190.60937079 -45.7139003 193.71848944 -54.1484375 196.64453125 C-47.4595653 208.9730408 -38.81631689 219.67014205 -25.3359375 224.64453125 C-18.57070757 226.39886882 -11.99287846 225.47463254 -5.703125 222.48046875 C1.93969231 217.71369419 9.63766085 210.68925258 13.8515625 202.64453125 C13.3565625 201.15953125 13.3565625 201.15953125 12.8515625 199.64453125 C10.50440395 198.47850396 8.21920132 197.47992845 5.7890625 196.51953125 C-1.09001771 193.67749197 -7.51025173 190.35905415 -13.91821289 186.57763672 C-20.76381064 182.57272919 -23.10119382 182.18585233 -29.8984375 186.20703125 Z " fill="#FEFEFE" transform="translate(198.1484375,46.35546875)"/>
<path d="M0 0 C10.53687814 8.83799742 15.59767901 18.00296493 17.1875 31.6875 C17.63706772 38.78836455 17.63706772 38.78836455 16.1875 41.6875 C-21.4325 42.1825 -21.4325 42.1825 -59.8125 42.6875 C-55.96352524 50.57144901 -55.96352524 50.57144901 -49.8125 55.6875 C-41.62209834 58.41763389 -31.58528813 57.47621304 -23.8203125 53.9140625 C-21.52719439 52.62611199 -21.52719439 52.62611199 -19.0625 49.875 C-18.32 49.153125 -17.5775 48.43125 -16.8125 47.6875 C-11.14738346 47.96019971 -5.99517721 50.43607803 -0.8125 52.5625 C0.0640625 52.91441406 0.940625 53.26632813 1.84375 53.62890625 C6.39686988 55.47346837 10.83408998 57.410552 15.1875 59.6875 C13.51363613 68.09401633 6.77633382 73.30442069 0.02734375 77.93359375 C-17.87929899 88.99285453 -43.05497031 89.18966327 -63.125 84.7890625 C-75.81325471 80.99871522 -86.00283339 74.36636578 -92.78515625 62.765625 C-99.02288699 50.14785787 -100.01502691 34.12439134 -96.25 20.625 C-92.0366633 9.01622616 -83.85184964 -0.50496746 -72.8125 -6.125 C-50.73790944 -15.2127313 -19.51719008 -14.44864493 0 0 Z M-56.9375 22.875 C-58.90495003 25.26280766 -58.90495003 25.26280766 -58.8125 26.6875 C-46.2725 26.6875 -33.7325 26.6875 -20.8125 26.6875 C-22.63813451 21.74648806 -22.63813451 21.74648806 -26.25 18.9375 C-26.84683594 18.53015625 -27.44367188 18.1228125 -28.05859375 17.703125 C-36.86091028 12.60601521 -50.40528309 15.26019658 -56.9375 22.875 Z " fill="#FEFEFE" transform="translate(605.8125,138.3125)"/>
<path d="M0 0 C12.87 0 25.74 0 39 0 C38.96519531 3.81691406 38.93039062 7.63382813 38.89453125 11.56640625 C38.87111854 15.27318575 38.85291164 18.97995694 38.83520508 22.68676758 C38.82014156 25.2580943 38.7996868 27.82939543 38.77368164 30.40063477 C38.73719239 34.10178962 38.72024879 37.802604 38.70703125 41.50390625 C38.69154739 42.64896133 38.67606354 43.79401642 38.66011047 44.97377014 C38.65855725 52.3808984 39.03727816 57.79038467 44.25 63.4375 C47.87098982 65.49488058 49.88973243 65.64898962 54 65 C58.96797073 61.84724935 61.25374276 58.67706704 63 53 C63.48740597 50.0226479 63.60465061 47.07566397 63.6875 44.0625 C63.72093506 43.19020752 63.75437012 42.31791504 63.78881836 41.41918945 C64.24149376 27.62375971 64.05871442 13.79788841 64 0 C77.86 0 91.72 0 106 0 C106 31.02 106 62.04 106 94 C94.12 94 82.24 94 70 94 C68.0625 84.5625 68.0625 84.5625 67.45727539 81.58422852 C67.21738892 80.43071899 67.21738892 80.43071899 66.97265625 79.25390625 C66.81031494 78.46314697 66.64797363 77.6723877 66.48071289 76.85766602 C66.16709107 74.99795332 66.16709107 74.99795332 65 74 C64.74347656 74.6290625 64.48695313 75.258125 64.22265625 75.90625 C60.26477181 84.75485359 54.79479928 90.72913616 45.75 94.5 C34.42342723 98.0435088 24.35431686 96.23349775 13.97265625 90.97265625 C7.14408958 86.77390957 2.82738171 78.64177804 1 71 C-0.2326252 63.49326209 -0.12755755 56.02713179 -0.09765625 48.4375 C-0.09578795 47.03645885 -0.094366 45.63541704 -0.09336853 44.234375 C-0.08957576 40.57165682 -0.07977366 36.90897917 -0.06866455 33.24627686 C-0.05838026 29.49882566 -0.05380092 25.75136764 -0.04882812 22.00390625 C-0.03868054 14.6692352 -0.01910072 7.33467502 0 0 Z " fill="#FEFEFE" transform="translate(826,129)"/>
<path d="M0 0 C15.51 0 31.02 0 47 0 C45.38366276 3.23267448 44.12963984 5.23441501 41.8125 7.875 C41.26207031 8.51179688 40.71164062 9.14859375 40.14453125 9.8046875 C37.28429286 12.73265467 34.10775844 15.33620705 31 18 C45.85 18.495 45.85 18.495 61 19 C61 29.23 61 39.46 61 50 C51.23876111 50.07871967 41.71743148 49.99824428 32 49 C32.081671 52.66752428 32.19444076 56.33348093 32.3125 60 C32.34633789 61.54494141 32.34633789 61.54494141 32.38085938 63.12109375 C32.6121425 69.72317558 32.88241108 76.39597496 37.41918945 81.640625 C43.00903607 86.44746144 51.29215833 85 58 85 C57.67 94.24 57.34 103.48 57 113 C48.97666165 114.45878879 42.49333187 115.35922263 34.5625 115.3125 C33.55622559 115.30686035 32.54995117 115.3012207 31.51318359 115.29541016 C20.41435616 115.1139922 10.50853603 113.70485501 2 106 C-7.1468698 95.34011414 -6.51734702 81.58817487 -6.6875 68.375 C-6.72072698 66.5898195 -6.75522148 64.80466212 -6.79101562 63.01953125 C-6.87765165 58.67967072 -6.93823529 54.34056795 -7 50 C-12.28 50 -17.56 50 -23 50 C-23 39.77 -23 29.54 -23 19 C-20.03 18.34 -17.06 17.68 -14 17 C-6.46070884 12.94038169 -3.34167745 7.79724738 0 0 Z " fill="#FEFEFE" transform="translate(763,110)"/>
<path d="M0 0 C13.53 0 27.06 0 41 0 C41 44.22 41 88.44 41 134 C27.47 134 13.94 134 0 134 C0 89.78 0 45.56 0 0 Z " fill="#FEFEFE" transform="translate(1220,89)"/>
<path d="M0 0 C-0.60754048 8.82404376 -1.7197079 17.50998926 -3.0625 26.25 C-3.24876953 27.48363281 -3.43503906 28.71726563 -3.62695312 29.98828125 C-4.08111555 32.9927404 -4.53885157 35.99660662 -5 39 C-8.68250302 38.51163938 -12.11154718 37.96785929 -15.6875 36.9375 C-22.17147779 35.26910805 -29.00727563 35.12938927 -35.4375 37 C-40.88221653 41.24953485 -43.1320969 46.25350622 -44 53 C-44.1286189 56.18578951 -44.11674123 59.36674498 -44.09765625 62.5546875 C-44.09664917 63.35463135 -44.09564209 64.1545752 -44.09460449 64.97875977 C-44.08940396 67.94418793 -44.07544286 70.90959552 -44.0625 73.875 C-44.041875 80.51625 -44.02125 87.1575 -44 94 C-57.86 94 -71.72 94 -86 94 C-86 62.98 -86 31.96 -86 0 C-74.12 0 -62.24 0 -50 0 C-48.68 6.6 -47.36 13.2 -46 20 C-43.80116325 17.07361627 -43.80116325 17.07361627 -41.7109375 14.0703125 C-36.28121611 6.1638761 -30.29633666 2.27703196 -20.9375 0.125 C-13.62765678 -1.21264623 -7.33304765 -1.46660953 0 0 Z " fill="#FEFEFE" transform="translate(1023,129)"/>
<path d="M0 0 C0.66 0 1.32 0 2 0 C2.21092285 0.83660156 2.4218457 1.67320313 2.63916016 2.53515625 C3.44088635 5.67767934 4.25915884 8.81531291 5.08837891 11.95068359 C5.44193131 13.30087415 5.78910203 14.65275435 6.12939453 16.00634766 C9.25599101 28.67705792 9.25599101 28.67705792 17.68798828 38.23144531 C23.75676748 41.63639216 30.81418489 43.03813745 37.5 44.75 C38.70398438 45.06582031 39.90796875 45.38164062 41.1484375 45.70703125 C44.09699418 46.47927228 47.04741102 47.24335123 50 48 C50 48.66 50 49.32 50 50 C49.25427734 50.19110352 48.50855469 50.38220703 47.74023438 50.57910156 C44.32434872 51.46010745 40.91222617 52.35492997 37.5 53.25 C36.32695312 53.55035156 35.15390625 53.85070312 33.9453125 54.16015625 C20.87297811 57.45921566 20.87297811 57.45921566 11.33105469 66.41796875 C8.48331217 71.94212958 7.13203921 78.00539776 5.625 84 C5.26858753 85.36111296 4.91052656 86.72179537 4.55078125 88.08203125 C3.68426403 91.38416442 2.83459299 94.68968159 2 98 C1.34 98 0.68 98 0 98 C-0.19110352 97.25427734 -0.38220703 96.50855469 -0.57910156 95.74023438 C-1.46010745 92.32434872 -2.35492997 88.91222617 -3.25 85.5 C-3.55035156 84.32695312 -3.85070312 83.15390625 -4.16015625 81.9453125 C-7.27891363 69.19003752 -7.27891363 69.19003752 -16 60 C-23.00196737 56.83268048 -30.20545332 54.69156362 -37.625 52.75 C-38.62917969 52.481875 -39.63335937 52.21375 -40.66796875 51.9375 C-43.11057111 51.28613937 -45.55450817 50.64040956 -48 50 C-48 49.34 -48 48.68 -48 48 C-47.16339844 47.78907715 -46.32679688 47.5781543 -45.46484375 47.36083984 C-42.32232066 46.55911365 -39.18468709 45.74084116 -36.04931641 44.91162109 C-34.69912585 44.55806869 -33.34724565 44.21089797 -31.99365234 43.87060547 C-19.32294208 40.74400899 -19.32294208 40.74400899 -9.76855469 32.31201172 C-6.36360784 26.24323252 -4.96186255 19.18581511 -3.25 12.5 C-2.77626953 10.69402344 -2.77626953 10.69402344 -2.29296875 8.8515625 C-1.52072772 5.90300582 -0.75664877 2.95258898 0 0 Z M0 11 C-0.16081055 11.57443848 -0.32162109 12.14887695 -0.48730469 12.74072266 C-1.23062594 15.37203746 -1.99015258 17.99841205 -2.75 20.625 C-3.12898438 21.98044922 -3.12898438 21.98044922 -3.515625 23.36328125 C-5.68781177 30.80302094 -8.22433281 36.67510605 -15 41 C-21.43037332 43.77699209 -28.0842991 45.6520267 -34.8828125 47.2890625 C-37.18682666 47.78570278 -37.18682666 47.78570278 -38 50 C-37.10861328 50.22550537 -37.10861328 50.22550537 -36.19921875 50.45556641 C-33.46089824 51.15984285 -30.7308103 51.89216573 -28 52.625 C-27.06542969 52.86089844 -26.13085938 53.09679687 -25.16796875 53.33984375 C-18.18143482 55.24526209 -12.00193991 57.70971801 -7.71777344 63.83251953 C-5.07300447 68.76028467 -3.64548239 74.11115606 -2.25 79.5 C-2.02957031 80.32242188 -1.80914062 81.14484375 -1.58203125 81.9921875 C-1.04699691 83.9927507 -0.52238507 85.99609663 0 88 C2.15939759 87.20394352 2.15939759 87.20394352 2.68261719 85.17749023 C2.9866748 84.00488647 2.9866748 84.00488647 3.296875 82.80859375 C3.5340625 81.94556641 3.77125 81.08253906 4.015625 80.19335938 C4.49737344 78.38552148 4.97159843 76.5756584 5.4375 74.76367188 C7.33444589 67.93769372 9.85188425 61.90666449 15.83300781 57.71557617 C20.76259845 55.07472405 26.11115998 53.64548137 31.5 52.25 C32.32242188 52.02957031 33.14484375 51.80914062 33.9921875 51.58203125 C35.9927507 51.04699691 37.99609663 50.52238507 40 50 C39.67 49.34 39.34 48.68 39 48 C36.14977026 47.15471855 33.32058994 46.40074817 30.4375 45.6875 C21.77160748 43.40780543 13.90817581 41.06343168 9 33 C5.95054237 25.89628262 3.90905604 18.47713616 2 11 C1.34 11 0.68 11 0 11 Z " fill="#FEFEFE" transform="translate(179,109)"/>
</svg>
